<svg width="89" height="82" viewBox="0 0 89 82" fill="none" xmlns="http://www.w3.org/2000/svg">
<path d="M86.9023 66.7259C86.1939 65.5984 85.2678 64.6232 84.1782 63.8576C83.0886 63.092 81.8572 62.5514 80.5563 62.2671C75.5787 61.1094 71.2618 58.0286 68.5487 53.6978C65.8357 49.3669 64.9473 44.1383 66.0775 39.1545C66.512 37.2282 66.3677 35.2165 65.6626 33.3719C64.9575 31.5274 63.7232 29.9323 62.1146 28.787C60.5059 27.6418 58.5947 26.9974 56.6209 26.9347C54.6472 26.8721 52.6991 27.394 51.0211 28.435C49.343 29.476 48.01 30.9895 47.1894 32.7856C46.3688 34.5818 46.0971 36.5803 46.4087 38.5302C46.7201 40.4802 47.6009 42.2947 48.9403 43.7457C50.2795 45.1968 52.0178 46.2198 53.9366 46.6861C56.419 47.246 58.7665 48.2904 60.8444 49.7593C62.9224 51.2282 64.69 53.0928 66.0459 55.2461C67.4019 57.3996 68.3195 59.7994 68.7461 62.3081C69.1729 64.8167 69.1003 67.385 68.5325 69.8656C68.1963 71.4647 68.2562 73.1218 68.7071 74.6923C69.1581 76.2629 69.9864 77.6993 71.1197 78.8766C72.2531 80.0537 73.657 80.9359 75.2094 81.4461C76.7617 81.9563 78.4152 82.0791 80.0259 81.8038C81.6367 81.5286 83.1556 80.8635 84.4505 79.8667C85.7453 78.8698 86.7765 77.5716 87.4546 76.0848C88.1326 74.598 88.4368 72.968 88.3406 71.3369C88.2442 69.7056 87.7506 68.1226 86.9023 66.7259Z" fill="#180E73"/>
<path d="M25.2957 55.6035C27.0486 56.56 29.0472 56.9711 31.0352 56.7838C33.0233 56.5966 34.91 55.8196 36.4534 54.5526C37.9968 53.2855 39.1265 51.5862 39.6973 49.6728C40.2683 47.7593 40.2544 45.7189 39.6576 43.8134C38.9011 41.3835 38.6316 38.8283 38.8646 36.2941C39.0977 33.7599 39.8284 31.2967 41.0154 29.0456C42.2022 26.7945 43.8217 24.7997 45.781 23.1757C47.7403 21.5516 50.0009 20.3304 52.4331 19.5818C54.3195 18.9909 55.9888 17.8552 57.2312 16.3178C58.4737 14.7804 59.2336 12.9098 59.4153 10.9414C59.5972 8.97307 59.1927 6.99488 58.2529 5.25597C57.3131 3.51693 55.8799 2.09474 54.1337 1.16841C52.3874 0.242078 50.4063 -0.147154 48.4395 0.0499163C46.4726 0.246864 44.6079 1.02116 43.0801 2.27549C41.5522 3.5297 40.4296 5.20787 39.8532 7.09869C39.2769 8.98951 39.2728 11.0086 39.8413 12.9017C41.3337 17.7892 40.829 23.069 38.4379 27.5853C36.0466 32.1016 31.9637 35.4867 27.0826 36.9997C25.1557 37.5585 23.4409 38.6828 22.1601 40.2272C20.8794 41.7716 20.0918 43.6649 19.8992 45.6618C19.7068 47.6589 20.1183 49.6678 21.0804 51.4283C22.0426 53.1889 23.511 54.6201 25.2957 55.5366V55.6035Z" fill="#EF2323"/>
<path d="M51.0805 53.9666C49.7482 54.0134 48.4388 54.3255 47.2286 54.8847C46.0185 55.4439 44.9321 56.2388 44.0331 57.2232C40.545 60.9539 35.7217 63.1519 30.6178 63.3366C25.5137 63.5212 20.5441 61.6774 16.7956 58.2084C15.827 57.2996 14.6875 56.5925 13.4433 56.128C12.1991 55.6636 10.875 55.4511 9.54787 55.5031C7.91437 55.5801 6.32443 56.0559 4.91708 56.8887C3.50961 57.7215 2.32755 58.8861 1.47387 60.2809C0.620056 61.6757 0.120753 63.2583 0.0192724 64.8904C-0.0820853 66.5227 0.217448 68.1548 0.89198 69.6447C1.56651 71.1343 2.5953 72.4364 3.88878 73.4371C5.18226 74.4378 6.7009 75.1066 8.31232 75.3852C9.92373 75.6639 11.579 75.544 13.1333 75.0359C14.6878 74.5277 16.0942 73.6469 17.2297 72.4702C18.9572 70.5998 21.0366 69.0887 23.349 68.0233C25.6614 66.9579 28.1612 66.3591 30.7054 66.2614C33.2495 66.1638 35.788 66.5688 38.1753 67.4537C40.5626 68.3387 42.7518 69.6858 44.6176 71.4181C45.8323 72.5157 47.2975 73.2988 48.8848 73.6991C50.4723 74.0995 52.1336 74.1048 53.7235 73.7145C55.3134 73.3243 56.7834 72.5505 58.0051 71.4608C59.2268 70.371 60.1628 68.9984 60.7314 67.4631C61.2999 65.9279 61.4836 64.2769 61.2665 62.6542C61.0494 61.0316 60.4379 59.4869 59.4855 58.1552C58.5333 56.8235 57.2694 55.7455 55.8042 55.0153C54.3389 54.2852 52.717 53.925 51.0805 53.9666Z" fill="#486AF6"/>
</svg>
