<svg width="158" height="158" viewBox="0 0 158 158" fill="none" xmlns="http://www.w3.org/2000/svg">
<g opacity="0.1">
<path opacity="0.1" d="M157.196 153.5V157.196H153.501" stroke="#1D1D1D" stroke-opacity="0.65" stroke-miterlimit="10"/>
<path opacity="0.1" d="M146.393 157.197H7.84204" stroke="#1D1D1D" stroke-opacity="0.65" stroke-miterlimit="10" stroke-dasharray="5.77 5.77"/>
<path opacity="0.1" d="M4.28209 157.196H0.586426V153.5" stroke="#1D1D1D" stroke-opacity="0.65" stroke-miterlimit="10"/>
<path opacity="0.1" d="M0.586426 146.392V7.83057" stroke="#1D1D1D" stroke-opacity="0.65" stroke-miterlimit="10" stroke-dasharray="5.77 5.77"/>
<path opacity="0.1" d="M0.586426 4.28238V0.586426H4.28209" stroke="#1D1D1D" stroke-opacity="0.65" stroke-miterlimit="10"/>
<path opacity="0.1" d="M11.3901 0.586426H149.941" stroke="#1D1D1D" stroke-opacity="0.65" stroke-miterlimit="10" stroke-dasharray="5.77 5.77"/>
<path opacity="0.1" d="M153.501 0.586426H157.196V4.28238" stroke="#1D1D1D" stroke-opacity="0.65" stroke-miterlimit="10"/>
<path opacity="0.1" d="M157.196 11.3784V149.952" stroke="#1D1D1D" stroke-opacity="0.65" stroke-miterlimit="10" stroke-dasharray="5.77 5.77"/>
</g>
<path d="M80.0563 60.5109C82.4736 60.5131 84.8633 61.0381 87.0695 62.0513C89.2757 63.0646 91.249 64.5435 92.8605 66.3914L97.9057 61.7263C94.6763 58.0428 90.4395 55.4432 85.748 54.2669C81.0566 53.0904 76.1284 53.3919 71.6064 55.1318C67.0845 56.8718 63.1788 59.9693 60.3991 64.0204C57.6194 68.0715 56.0948 72.8878 56.0241 77.8411C55.9533 82.7943 57.34 87.6545 60.0028 91.7872C62.6658 95.92 66.4813 99.1336 70.9517 101.009C75.422 102.883 80.3396 103.333 85.0627 102.298C89.7856 101.263 94.0949 98.7914 97.428 95.2065L92.4974 90.404C90.5332 92.5108 88.0908 94.0855 85.3884 94.9874C82.686 95.8894 79.8077 96.0904 77.011 95.5725C74.2143 95.0547 71.5864 93.8342 69.362 92.02C67.1376 90.2057 65.3861 87.8545 64.2642 85.1763C63.1422 82.4981 62.6846 79.5764 62.9325 76.6726C63.1805 73.7687 64.126 70.9731 65.6845 68.5357C67.2433 66.0982 69.3664 64.0949 71.8644 62.7048C74.3623 61.3147 77.1571 60.5811 79.9991 60.5697L80.0563 60.5109Z" fill="#180E73"/>
<path d="M57.2535 54.6819L52.276 49.8657C48.3875 53.5804 45.302 57.9958 43.1964 62.8586C41.091 67.7213 40.0071 72.9354 40.0071 78.2014C40.0071 83.4674 41.091 88.6815 43.1964 93.5442C45.302 98.407 48.3875 102.822 52.276 106.537L57.2535 101.721C54.0116 98.6455 51.4377 94.983 49.6809 90.9457C47.9242 86.9085 47.0196 82.5767 47.0196 78.2014C47.0196 73.8261 47.9242 69.4943 49.6809 65.4571C51.4377 61.4198 54.0116 57.7573 57.2535 54.6819Z" fill="#EF2323"/>
<path d="M104.065 45.5234C97.2782 40.3305 89.0773 37.5353 80.6592 37.5459V44.5386C87.6052 44.5319 94.3733 46.8291 99.9847 51.0978L104.065 45.5234Z" fill="#EF2323"/>
<path d="M80.6592 111.959V118.857C88.5337 118.866 96.2397 116.57 102.833 112.25L98.96 106.537C93.5115 110.084 87.1539 111.967 80.6592 111.959Z" fill="#EF2323"/>
<path d="M80.6593 103.438C75.325 103.435 70.1205 101.839 65.7505 98.868C61.3804 95.8966 58.0557 91.6925 56.2264 86.8252L49.8621 89.6961C52.2587 95.7407 56.4841 100.938 61.9816 104.604C67.4792 108.27 73.991 110.233 80.6593 110.233V103.438Z" fill="#180E73"/>
<path d="M55.4265 76.9696C55.8396 70.4887 58.6772 64.4093 63.3632 59.965C68.0492 55.5207 74.2327 53.0442 80.6593 53.0379V46.1699C72.4294 46.1697 64.5145 49.3669 58.5525 55.1C52.5905 60.8331 49.0379 68.6631 48.6301 76.9696H55.4265Z" fill="#180E73"/>
</svg>
