<svg width="158" height="158" viewBox="0 0 158 158" fill="none" xmlns="http://www.w3.org/2000/svg">
<g opacity="0.1">
<path opacity="0.1" d="M157.414 153.5V157.196H153.718" stroke="#1D1D1D" stroke-opacity="0.65" stroke-miterlimit="10"/>
<path opacity="0.1" d="M146.621 157.197H8.04736" stroke="#1D1D1D" stroke-opacity="0.65" stroke-miterlimit="10" stroke-dasharray="5.77 5.77"/>
<path opacity="0.1" d="M4.49943 157.196H0.803467V153.5" stroke="#1D1D1D" stroke-opacity="0.65" stroke-miterlimit="10"/>
<path opacity="0.1" d="M0.803467 146.404V7.83057" stroke="#1D1D1D" stroke-opacity="0.65" stroke-miterlimit="10" stroke-dasharray="5.77 5.77"/>
<path opacity="0.1" d="M0.803467 4.28238V0.586426H4.49943" stroke="#1D1D1D" stroke-opacity="0.65" stroke-miterlimit="10"/>
<path opacity="0.1" d="M11.6082 0.586426H150.17" stroke="#1D1D1D" stroke-opacity="0.65" stroke-miterlimit="10" stroke-dasharray="5.77 5.77"/>
<path opacity="0.1" d="M153.718 0.586426H157.414V4.28238" stroke="#1D1D1D" stroke-opacity="0.65" stroke-miterlimit="10"/>
<path opacity="0.1" d="M157.414 11.3911V149.953" stroke="#1D1D1D" stroke-opacity="0.65" stroke-miterlimit="10" stroke-dasharray="5.77 5.77"/>
</g>
<path d="M62.5022 45.4271C61.2719 46.2356 60.2475 47.3233 59.5113 48.6024C58.7752 49.8816 58.3477 51.3168 58.2634 52.7924V61.1802C58.3477 62.6558 58.7752 64.091 59.5113 65.3701C60.2475 66.6494 61.2719 67.737 62.5022 68.5455L71.2726 73.7444C73.5987 75.0962 75.5113 73.9871 75.5113 71.2835V42.8623C75.5113 40.1588 73.5987 39.0497 71.2726 40.4015L62.5022 45.4271Z" fill="#180E73"/>
<path d="M61.5885 70.3633C60.3151 69.7255 58.9081 69.3931 57.4811 69.3931C56.0541 69.3931 54.647 69.7255 53.3736 70.3633L46.3634 74.3407C45.1688 75.1138 44.1741 76.1538 43.4592 77.3771C42.7444 78.6004 42.3294 79.9727 42.2476 81.3839V91.1284C42.2476 93.7137 44.1048 94.7743 46.3634 93.4817L70.1213 79.8924C72.38 78.5998 72.38 76.4951 70.1213 75.2024L61.5885 70.3633Z" fill="#EF2323"/>
<path d="M93.4486 45.4271C94.6789 46.2356 95.7033 47.3233 96.4394 48.6024C97.1756 49.8816 97.6031 51.3168 97.6873 52.7924V61.1802C97.6031 62.6558 97.1756 64.091 96.4394 65.3701C95.7033 66.6494 94.6789 67.737 93.4486 68.5455L84.661 73.7444C82.3349 75.0962 80.4395 73.9871 80.4395 71.2835V42.8623C80.4395 40.1588 82.3349 39.0497 84.661 40.4015L93.4486 45.4271Z" fill="#EF2323"/>
<path d="M93.5623 70.3633C94.8895 69.7255 96.356 69.3931 97.8432 69.3931C99.3305 69.3931 100.797 69.7255 102.124 70.3633L109.431 74.3407C110.673 75.1147 111.708 76.1553 112.45 77.3787C113.192 78.602 113.621 79.974 113.703 81.3839V91.1284C113.703 93.7137 111.785 94.7743 109.431 93.4817L84.669 79.8924C82.3148 78.5998 82.3148 76.4951 84.669 75.2024L93.5623 70.3633Z" fill="#180E73"/>
<path d="M57.4084 106.616C58.6825 107.253 60.0903 107.585 61.5181 107.585C62.9459 107.585 64.3537 107.253 65.6279 106.616L72.6422 102.627C73.8356 101.851 74.8282 100.808 75.5405 99.5839C76.2528 98.3594 76.6647 96.987 76.7435 95.5768V85.8453C76.7435 83.2634 74.9021 82.2043 72.6422 83.4952L48.8707 97.0662C46.6108 98.3571 46.6108 100.459 48.8707 101.75L57.4084 106.616Z" fill="#180E73"/>
<path d="M77.9753 95.5847C78.0587 96.9915 78.4886 98.3603 79.2305 99.5809C79.9725 100.802 81.0058 101.84 82.2476 102.614L89.5542 106.616C90.8814 107.253 92.3478 107.585 93.8352 107.585C95.3225 107.585 96.7889 107.253 98.1161 106.616L107.009 101.737C109.364 100.447 109.364 98.3467 107.009 97.0567L82.2476 83.4948C79.8936 82.2048 77.9753 83.2633 77.9753 85.8433V95.5847Z" fill="#EF2323"/>
</svg>
