<svg width="79" height="78" viewBox="0 0 79 78" fill="none" xmlns="http://www.w3.org/2000/svg">
<path d="M14.5512 22.2595L20.0348 25.0013C21.0442 25.4422 22.1425 25.6408 23.2422 25.5813C24.342 25.5218 25.4125 25.2058 26.3683 24.6586L31.5504 21.2862C32.442 20.639 33.1677 19.7897 33.6681 18.808C34.1685 17.8263 34.4294 16.74 34.4291 15.6381L34.1002 9.45542C33.9801 8.36241 33.6051 7.31272 33.005 6.39121C32.4048 5.4697 31.5967 4.702 30.6454 4.15008L25.1619 1.33976C24.1546 0.893677 23.0562 0.69106 21.9559 0.748226C20.8557 0.805392 19.7842 1.1207 18.8284 1.66878L13.6466 5.04116C12.7565 5.69 12.0318 6.53954 11.5317 7.52096C11.0315 8.50224 10.7696 9.58784 10.7676 10.6892L11.0966 16.8719C11.2031 17.9799 11.572 19.0464 12.1727 19.9833C12.7735 20.9203 13.5889 21.7006 14.5512 22.2595Z" fill="#EF2323"/>
<path d="M47.6307 30.2656L42.1471 27.4553C41.1402 27.0146 40.044 26.8161 38.9465 26.8755C37.849 26.935 36.7808 27.251 35.8273 27.798L30.5905 31.1704C29.7037 31.8223 28.9814 32.6725 28.4816 33.6532C27.9817 34.6338 27.718 35.7178 27.7117 36.8185L28.0408 43.0012C28.1608 44.0943 28.5359 45.144 29.1359 46.0655C29.7361 46.987 30.5442 47.7547 31.4953 48.3065L36.9789 51.0483C37.984 51.4942 39.08 51.697 40.1782 51.6398C41.2763 51.5826 42.3453 51.2672 43.2986 50.7193L48.4943 47.3469C49.3815 46.6921 50.1037 45.8394 50.6034 44.8565C51.1032 43.8737 51.3669 42.7877 51.3732 41.6851L51.0442 35.5161C50.9184 34.4371 50.5449 33.4017 49.9528 32.4908C49.3606 31.58 48.5659 30.8185 47.6307 30.2656Z" fill="#EF2323"/>
<path d="M64.5475 56.34L59.064 53.5982C58.0565 53.152 56.9583 52.9494 55.858 53.0065C54.7578 53.0637 53.6863 53.379 52.7305 53.9272L47.5487 57.2996C46.6601 57.9498 45.9367 58.7998 45.4367 59.7808C44.9366 60.7618 44.6739 61.8466 44.6697 62.9477L44.9988 69.1304C45.13 70.2058 45.5076 71.2366 46.102 72.1423C46.6963 73.0482 47.4917 73.8048 48.4261 74.3534L53.9096 77.0952C54.9189 77.536 56.0172 77.7346 57.1169 77.6751C58.2167 77.6156 59.2872 77.2996 60.2431 76.7525L65.4386 73.3801C66.3263 72.7298 67.0482 71.8795 67.546 70.8983C68.0437 69.917 68.3034 68.8323 68.3039 67.7321L68.0159 61.659C67.8976 60.5619 67.5218 59.5082 66.9191 58.5839C66.3164 57.6596 65.5037 56.8907 64.5475 56.34Z" fill="#EF2323"/>
<path d="M24.1474 40.986L23.8869 36.1742C23.8932 35.0735 24.1568 33.9896 24.6568 33.009C25.1566 32.0282 25.8788 31.178 26.7658 30.5262L36.8692 23.9596C37.8225 23.4126 38.8909 23.0966 39.9884 23.0371C41.0859 22.9776 42.1821 23.1763 43.189 23.6169L47.4936 25.8103C48.501 26.2564 49.5993 26.4591 50.6995 26.402C51.8 26.3448 52.8713 26.0294 53.8271 25.4813L59.009 22.0952C59.8983 21.4457 60.6223 20.596 61.1224 19.6147C61.6225 18.6336 61.8848 17.5485 61.8879 16.4471L61.5589 10.2782C61.441 9.18267 61.0667 8.13025 60.4666 7.20627C59.8664 6.28215 59.0572 5.5124 58.1043 4.95911L52.6207 2.14879C51.6115 1.70805 50.5131 1.50941 49.4132 1.5689C48.3135 1.6284 47.243 1.94439 46.2872 2.49151L40.9956 5.80906C40.1079 6.45941 39.386 7.30963 38.8883 8.29091C38.3905 9.27219 38.1308 10.3568 38.1304 11.4571L38.3772 16.2689C38.3768 17.3693 38.117 18.454 37.6192 19.4353C37.1214 20.4165 36.3995 21.2668 35.512 21.917L25.4086 28.4835C24.4528 29.0316 23.3815 29.3471 22.2812 29.4042C21.1808 29.4614 20.0826 29.2586 19.0751 28.8125L14.7842 26.6328C13.7767 26.1868 12.6785 25.9841 11.5781 26.0413C10.4778 26.0985 9.40649 26.4138 8.45071 26.9618L3.26875 30.3342C2.37864 30.9831 1.65413 31.8326 1.15389 32.814C0.653652 33.7954 0.391949 34.8809 0.389893 35.9823L0.718903 42.165C0.835702 43.2609 1.20954 44.3137 1.80972 45.238C2.41003 46.1622 3.21981 46.9317 4.17354 47.484L9.65709 50.2258C10.6663 50.6667 11.7647 50.8653 12.8644 50.8058C13.9641 50.7463 15.0348 50.4303 15.9906 49.8831L21.1725 46.5107C22.0631 45.8838 22.7953 45.0583 23.3117 44.0993C23.828 43.1405 24.1141 42.0746 24.1474 40.986Z" fill="#180E73"/>
<path d="M78.421 36.3527C78.2989 35.2583 77.923 34.2076 77.3232 33.2842C76.7235 32.3608 75.9164 31.59 74.9664 31.0336L69.4829 28.2918C68.4733 27.8521 67.375 27.654 66.2755 27.7135C65.1759 27.773 64.1054 28.0884 63.1493 28.6346L57.9673 32.0069C57.0788 32.6573 56.3555 33.5071 55.8554 34.4881C55.3554 35.4691 55.0926 36.5539 55.0885 37.655L55.349 42.4805C55.3447 43.5815 55.0821 44.6663 54.582 45.6473C54.082 46.6283 53.3586 47.4782 52.47 48.1286L42.3803 54.6814C41.4245 55.2285 40.354 55.5445 39.2542 55.604C38.1545 55.6635 37.0562 55.4649 36.0468 55.0241L31.7422 52.8307C30.7353 52.39 29.6391 52.1913 28.5416 52.2508C27.444 52.3105 26.3759 52.6263 25.4224 53.1734L20.1856 56.5321C19.2988 57.184 18.5766 58.0341 18.0766 59.0148C17.5768 59.9954 17.3132 61.0793 17.3069 62.1802L17.6358 68.3627C17.7558 69.4559 18.1309 70.5056 18.731 71.4271C19.3311 72.3486 20.1393 73.1163 21.0905 73.6682L26.5741 76.4785C27.5791 76.9245 28.6751 77.1271 29.7732 77.0699C30.8714 77.0128 31.9404 76.6973 32.8939 76.1494L38.0894 72.777C38.9755 72.1245 39.6973 71.2741 40.197 70.2936C40.6968 69.313 40.9609 68.2295 40.9684 67.1291L40.7079 62.3034C40.7109 61.2022 40.9732 60.1171 41.4733 59.136C41.9734 58.1547 42.6974 57.305 43.5867 56.6554L53.6764 50.0889C54.6322 49.5409 55.7037 49.2254 56.8039 49.1683C57.9042 49.1111 59.0024 49.3137 60.0099 49.7598L64.3008 51.9396C65.3082 52.3857 66.4066 52.5883 67.5069 52.5312C68.6071 52.474 69.6785 52.1587 70.6343 51.6106L75.8301 48.2382C76.7167 47.5871 77.4381 46.7367 77.9357 45.7557C78.4335 44.7746 78.6936 43.6902 78.6951 42.5902L78.421 36.3527Z" fill="#180E73"/>
</svg>
