<svg width="158" height="158" viewBox="0 0 158 158" fill="none" xmlns="http://www.w3.org/2000/svg">
<g opacity="0.1">
<path opacity="0.1" d="M157.414 153.5V157.196H153.718" stroke="#1D1D1D" stroke-opacity="0.65" stroke-miterlimit="10"/>
<path opacity="0.1" d="M146.609 157.197H8.04736" stroke="#1D1D1D" stroke-opacity="0.65" stroke-miterlimit="10" stroke-dasharray="5.77 5.77"/>
<path opacity="0.1" d="M4.49939 157.196H0.803467V153.5" stroke="#1D1D1D" stroke-opacity="0.65" stroke-miterlimit="10"/>
<path opacity="0.1" d="M0.803467 146.392V7.83057" stroke="#1D1D1D" stroke-opacity="0.65" stroke-miterlimit="10" stroke-dasharray="5.77 5.77"/>
<path opacity="0.1" d="M0.803467 4.28238V0.586426H4.49939" stroke="#1D1D1D" stroke-opacity="0.65" stroke-miterlimit="10"/>
<path opacity="0.1" d="M11.5957 0.586426H150.169" stroke="#1D1D1D" stroke-opacity="0.65" stroke-miterlimit="10" stroke-dasharray="5.77 5.77"/>
<path opacity="0.1" d="M153.718 0.586426H157.414V4.28238" stroke="#1D1D1D" stroke-opacity="0.65" stroke-miterlimit="10"/>
<path opacity="0.1" d="M157.414 11.3784V149.952" stroke="#1D1D1D" stroke-opacity="0.65" stroke-miterlimit="10" stroke-dasharray="5.77 5.77"/>
</g>
<path d="M78.4187 99.5616C76.0206 99.5723 73.6542 98.9913 71.5136 97.8665C69.3732 96.7415 67.5193 95.1049 66.1045 93.0906L56.2429 98.9829C56.6182 99.4329 57.0624 99.8151 57.5578 100.114L75.1062 110.636C76.1318 111.181 77.267 111.465 78.4187 111.465C79.5703 111.465 80.7055 111.181 81.7311 110.636L99.2795 100.114C99.7749 99.8151 100.219 99.4329 100.594 98.9829L90.7582 92.9854C89.3517 95.0227 87.4988 96.6819 85.3528 97.8256C83.2069 98.9692 80.8298 99.5644 78.4187 99.5616Z" fill="#180E73"/>
<path d="M62.9784 83.6827C62.9874 79.9417 64.4414 76.3351 67.0624 73.5522C69.6835 70.7692 73.2879 69.0052 77.1865 68.5971V57.2578C76.5951 57.3751 76.026 57.5786 75.4995 57.8612L57.2056 67.9183C56.2112 68.5528 55.3845 69.3982 54.79 70.3884C54.1955 71.3786 53.8494 72.4865 53.7788 73.6256V93.7396C53.7869 94.32 53.8845 94.8962 54.0687 95.4494L64.3492 89.7923C63.4503 87.8693 62.9833 85.7881 62.9784 83.6827Z" fill="#180E73"/>
<path d="M99.8119 67.9113L82.4808 57.8609C81.9821 57.5784 81.443 57.375 80.8826 57.2578V68.5645C83.237 68.8329 85.496 69.6537 87.4775 70.9611C89.459 72.2683 91.1078 74.0255 92.291 76.0911C93.4742 78.1566 94.1587 80.4729 94.2895 82.8533C94.4203 85.2337 93.9938 87.6117 93.0442 89.796L102.784 95.4494C102.958 94.8965 103.051 94.3207 103.058 93.7408V73.64C102.995 72.4974 102.669 71.3851 102.106 70.3909C101.542 69.3967 100.757 68.5479 99.8119 67.9113Z" fill="#180E73"/>
<path d="M112.436 57.838L83.8252 41.2914C82.1474 40.4486 80.296 40.0098 78.4187 40.0098C76.5414 40.0098 74.6902 40.4486 73.0122 41.2914L44.4016 57.838C42.8312 58.8625 41.5236 60.2424 40.5844 61.8663C39.6452 63.4902 39.1008 65.3124 38.9951 67.1858V100.279C39.0989 102.156 39.6423 103.983 40.5814 105.611C41.5206 107.24 42.8292 108.624 44.4016 109.653L73.0122 126.199C74.6902 127.042 76.5414 127.481 78.4187 127.481C80.296 127.481 82.1474 127.042 83.8252 126.199L112.436 109.653C114.008 108.624 115.317 107.24 116.256 105.611C117.195 103.983 117.738 102.156 117.842 100.279V67.1858C117.736 65.3124 117.192 63.4902 116.253 61.8663C115.314 60.2424 114.006 58.8625 112.436 57.838ZM108.762 96.4723C108.678 97.9146 108.258 99.3169 107.535 100.567C106.811 101.817 105.805 102.88 104.597 103.671L82.5575 116.411C81.2701 117.062 79.848 117.401 78.4057 117.401C76.9634 117.401 75.5412 117.062 74.2539 116.411L52.2398 103.671C51.0319 102.88 50.0259 101.817 49.3028 100.567C48.5795 99.3169 48.159 97.9146 48.075 96.4723V71.0182C48.159 69.5759 48.5795 68.1736 49.3028 66.9235C50.0259 65.6733 51.0319 64.6102 52.2398 63.8195L74.2279 51.0795C75.5154 50.4287 76.9374 50.0895 78.3798 50.0895C79.8221 50.0895 81.2443 50.4287 82.5318 51.0795L104.572 63.8195C105.784 64.6073 106.795 65.6692 107.523 66.9195C108.251 68.1698 108.675 69.5737 108.762 71.0182V96.4723Z" fill="#486AF6"/>
<path d="M67.3308 83.7453C67.3308 85.8164 67.9811 87.841 69.1994 89.5631C70.4177 91.2853 72.1495 92.6274 74.1756 93.4201C76.2016 94.2126 78.431 94.42 80.5819 94.016C82.7327 93.6119 84.7083 92.6146 86.2589 91.15C87.8096 89.6856 88.8657 87.8196 89.2936 85.7883C89.7213 83.7569 89.5018 81.6514 88.6625 79.7379C87.8233 77.8244 86.4023 76.1889 84.5789 75.0383C82.7555 73.8876 80.6116 73.2734 78.4187 73.2734C75.4781 73.2734 72.6578 74.3767 70.5785 76.3406C68.499 78.3045 67.3308 80.968 67.3308 83.7453Z" fill="#EF2323"/>
</svg>
